<svg version="1.1" id="Layer_1" xmlns="http://www.w3.org/2000/svg" xmlns:xlink="http://www.w3.org/1999/xlink" x="0px" y="0px"
	 width="100%" viewBox="0 0 624 704" enable-background="new 0 0 624 704" xml:space="preserve">
	<rect width="100%" height="100%" fill="#FFFFFF"/>
<path fill="#000000" opacity="1.000000" stroke="none" 
	d="
M226.972946,326.867798 
	C219.885025,295.528412 216.248596,264.178619 215.621170,232.004898 
	C207.868317,231.752090 200.813263,233.546631 193.929138,235.735489 
	C170.858978,243.070831 152.445969,257.230011 136.877731,275.406586 
	C125.866516,288.262634 117.074806,302.524139 109.786934,317.786041 
	C105.696388,326.352264 97.118126,327.858063 90.670151,321.175934 
	C62.291580,291.766846 41.096073,258.113129 31.729458,217.942154 
	C19.625660,166.032104 29.720001,118.230797 59.734497,74.434486 
	C62.367371,70.592674 65.068130,66.792542 67.865677,63.069469 
	C73.050346,56.169518 77.597893,55.084332 85.680450,58.239048 
	C113.316971,69.025887 141.246780,78.898598 170.365601,85.011459 
	C183.629852,87.795998 197.035309,88.774117 210.573776,88.864838 
	C215.330658,88.896721 216.892014,87.587486 216.876755,82.714584 
	C216.830429,67.903236 222.979141,56.355907 236.207214,49.055393 
	C240.794113,46.523903 245.807388,44.990562 250.999039,44.912868 
	C260.318024,44.773411 269.656189,44.529705 278.960724,45.533981 
	C299.976898,47.802349 313.501678,62.398083 313.987610,83.383347 
	C314.155090,90.615242 314.155090,90.615242 321.411407,90.812637 
	C341.799957,91.367264 357.917542,107.107941 358.061066,127.527855 
	C358.230774,151.679108 358.580200,175.845459 357.333710,199.987915 
	C356.473022,216.657104 341.432434,231.386688 324.265167,232.380234 
	C312.891846,233.038467 312.846680,233.039749 313.168945,244.475510 
	C314.307129,284.863770 321.921082,324.089813 334.050873,362.557495 
	C345.769012,399.719666 352.620026,437.750000 354.420746,476.746765 
	C356.359650,518.736938 353.785034,560.690552 354.136200,602.664856 
	C354.301971,622.477112 354.985474,642.336731 353.285675,662.111938 
	C351.648163,681.163208 335.660522,696.377075 316.402191,697.133118 
	C282.132263,698.478516 251.445831,688.347412 224.235474,667.479675 
	C218.926575,663.408203 213.391357,659.536987 209.970596,653.683411 
	C202.694611,641.232727 204.592453,627.377991 215.024490,616.619690 
	C226.296600,604.994995 236.954269,592.924194 244.828033,578.650757 
	C252.834503,564.136719 257.874420,548.790405 257.739105,532.028137 
	C257.556274,509.377777 258.627838,486.716644 256.819611,464.080078 
	C254.479080,434.780029 249.497742,405.968323 241.175293,377.770996 
	C236.226776,361.004852 231.032898,344.311432 226.972946,326.867798 
M331.988525,569.500000 
	C332.010284,539.023987 333.404419,508.566437 332.126404,478.067566 
	C330.439575,437.812012 322.286133,398.875610 310.248230,360.587402 
	C300.118774,328.369202 294.194153,295.344025 291.583466,261.677734 
	C290.963898,253.687912 290.986542,245.702835 290.594818,237.721008 
	C290.433716,234.437881 289.599854,232.054642 285.405273,232.019608 
	C271.246490,231.901459 257.087463,231.585205 242.934418,231.152130 
	C239.073929,231.033997 237.968781,232.685349 238.165497,236.209641 
	C238.666718,245.188812 238.698090,254.205276 239.500214,263.154602 
	C242.421844,295.750793 248.676224,327.706665 258.780792,358.861572 
	C268.263123,388.097961 274.518921,418.041473 277.952148,448.535797 
	C281.146118,476.905365 280.385162,505.429291 280.176727,533.916138 
	C280.074219,547.924561 277.118134,561.343140 271.878448,574.277832 
	C262.915924,596.402893 248.784790,614.952942 232.022781,631.676025 
	C226.781403,636.905273 226.887772,640.902527 232.342896,645.518372 
	C255.052521,664.734253 281.025574,675.146912 311.038513,674.796448 
	C324.521637,674.638977 331.574127,667.631531 331.633026,653.990540 
	C331.753174,626.160339 331.863281,598.330200 331.988525,569.500000 
M175.340408,108.331741 
	C164.802536,106.723602 154.397186,104.490891 144.056396,101.904671 
	C138.781601,100.585457 133.249008,96.470238 128.400024,98.329163 
	C123.338097,100.269707 121.419563,106.892311 118.421959,111.642174 
	C107.944901,128.243530 101.624748,146.270691 100.164612,165.951508 
	C97.892876,196.571594 107.587608,223.973953 122.428902,250.051010 
	C124.055542,252.909119 125.594414,253.012421 127.773895,250.714828 
	C132.938980,245.269791 138.585281,240.393112 144.547928,235.800537 
	C165.206268,219.888916 188.674774,210.626022 214.441711,209.150665 
	C247.204346,207.274734 280.045990,209.600632 312.846313,210.232376 
	C330.187195,210.566360 334.362488,207.566025 335.166229,190.160629 
	C336.111877,169.682922 335.631927,149.191895 335.710815,128.707611 
	C335.747620,119.156723 330.015869,113.588684 320.412506,113.296936 
	C307.595886,112.907578 294.775940,112.601753 281.955383,112.373749 
	C255.148987,111.897003 228.336594,111.670105 201.536789,110.958992 
	C193.081909,110.734642 184.659256,109.295555 175.340408,108.331741 
M76.744995,267.773254 
	C82.708557,276.699982 88.327873,285.894379 96.363358,293.731293 
	C100.362625,287.386627 103.867683,281.372406 107.860451,275.701508 
	C109.604256,273.224792 109.626938,271.656097 108.037529,269.110229 
	C96.529060,250.676407 87.186554,231.228073 82.011345,210.019608 
	C72.651985,171.664093 77.909317,135.431900 98.115074,101.400978 
	C100.341431,97.651299 103.469543,94.321968 104.681992,89.486908 
	C99.637497,87.543343 94.721001,85.972633 90.099258,83.780487 
	C85.145004,81.430603 82.141151,81.445038 78.487068,86.806305 
	C55.611183,120.369789 45.811882,157.012421 50.844761,197.440567 
	C53.980961,222.633057 63.330486,245.575699 76.744995,267.773254 
M291.629486,84.467308 
	C291.173309,73.193016 285.694977,67.713669 274.556366,67.482529 
	C268.247925,67.351616 261.937531,67.275177 255.627762,67.255295 
	C244.638214,67.220657 239.432816,72.740700 239.152328,83.887047 
	C239.042221,88.261940 240.446396,89.716965 244.768021,89.704155 
	C258.715118,89.662796 272.669678,89.735634 286.606781,90.200844 
	C290.704163,90.337624 292.113647,89.152290 291.629486,84.467308 
z"/>
<path fill="#000000" opacity="1.000000" stroke="none" 
	d="
M385.335388,581.000122 
	C385.332153,616.162170 385.332794,650.824280 385.322327,685.486328 
	C385.320312,692.190308 385.300385,692.205383 378.731201,692.230225 
	C374.231964,692.247192 369.728485,692.093811 365.234467,692.243652 
	C361.754974,692.359680 360.351227,690.873596 360.648560,687.479553 
	C360.764374,686.156860 360.658386,684.814941 360.658386,683.481812 
	C360.656036,495.173431 360.654205,306.865021 360.652344,118.556641 
	C360.652344,116.472801 360.652344,114.388969 360.652344,112.305130 
	C361.136566,112.155426 361.620789,112.005714 362.105011,111.856010 
	C402.548340,171.976242 442.991638,232.096481 483.434967,292.216705 
	C483.193420,292.700653 482.951874,293.184570 482.710327,293.668518 
	C466.408844,291.726868 450.107361,289.785217 432.198792,287.652161 
	C460.833771,332.147858 488.597290,375.289398 516.360840,418.430969 
	C516.052368,418.872528 515.743896,419.314056 515.435486,419.755615 
	C492.792114,413.581940 470.148773,407.408295 447.505432,401.234650 
	C447.181732,401.605164 446.858063,401.975677 446.534363,402.346222 
	C485.107910,462.933258 523.681458,523.520325 562.498291,584.489563 
	C558.454651,586.371948 555.119446,584.498413 551.948425,583.911011 
	C498.000122,573.918091 444.082062,563.761536 390.167267,553.588440 
	C386.770630,552.947510 385.191406,553.718994 385.278259,557.504028 
	C385.454071,565.165771 385.333649,572.834290 385.335388,581.000122 
z"/>
	
</svg>